<svg width="20" height="14" viewBox="0 0 20 14" fill="none" xmlns="http://www.w3.org/2000/svg">
<path d="M1.34953 2H18.6505C19.3958 2 20 1.55228 20 1C20 0.447715 19.3958 0 18.6505 0H1.34953C0.604204 0 0 0.447715 0 1C0 1.55228 0.604204 2 1.34953 2Z" fill="white"/>
<path d="M1.34953 8H18.6505C19.3958 8 20 7.55228 20 7C20 6.44772 19.3958 6 18.6505 6H1.34953C0.604204 6 0 6.44772 0 7C0 7.55228 0.604204 8 1.34953 8Z" fill="white"/>
<path d="M1.34953 14H18.6505C19.3958 14 20 13.5523 20 13C20 12.4477 19.3958 12 18.6505 12H1.34953C0.604204 12 0 12.4477 0 13C0 13.5523 0.604204 14 1.34953 14Z" fill="white"/>
</svg>
