<svg width="301" height="301" viewBox="0 0 301 301" fill="none" xmlns="http://www.w3.org/2000/svg">
<g clip-path="url(#clip0_79_835)">
<mask id="mask0_79_835" style="mask-type:luminance" maskUnits="userSpaceOnUse" x="0" y="0" width="301" height="301">
<path d="M300.08 0.0794678L0.0795898 0.0794678L0.0795898 300.079H300.08V0.0794678Z" fill="white"/>
</mask>
<g mask="url(#mask0_79_835)">
<mask id="mask1_79_835" style="mask-type:alpha" maskUnits="userSpaceOnUse" x="0" y="0" width="301" height="301">
<path d="M150.08 300.079C232.923 300.079 300.08 232.922 300.08 150.079C300.08 67.2368 232.923 0.0794678 150.08 0.0794678C67.2369 0.0794678 0.0795898 67.2368 0.0795898 150.079C0.0795898 232.922 67.2369 300.079 150.08 300.079Z" fill="#D9D9D9"/>
</mask>
<g mask="url(#mask1_79_835)">
<path d="M104.59 67.5295C106.529 67.5295 108.1 65.958 108.1 64.0195C108.1 62.0809 106.529 60.5095 104.59 60.5095C102.651 60.5095 101.08 62.0809 101.08 64.0195C101.08 65.958 102.651 67.5295 104.59 67.5295Z" fill="white" fill-opacity="0.08"/>
<path d="M104.59 293.53C106.529 293.53 108.1 291.959 108.1 290.02C108.1 288.082 106.529 286.51 104.59 286.51C102.651 286.51 101.08 288.082 101.08 290.02C101.08 291.959 102.651 293.53 104.59 293.53Z" fill="white" fill-opacity="0.08"/>
<path d="M225.59 67.5295C227.529 67.5295 229.1 65.958 229.1 64.0195C229.1 62.0809 227.529 60.5095 225.59 60.5095C223.651 60.5095 222.08 62.0809 222.08 64.0195C222.08 65.958 223.651 67.5295 225.59 67.5295Z" fill="white" fill-opacity="0.08"/>
<path d="M225.59 293.53C227.529 293.53 229.1 291.959 229.1 290.02C229.1 288.082 227.529 286.51 225.59 286.51C223.651 286.51 222.08 288.082 222.08 290.02C222.08 291.959 223.651 293.53 225.59 293.53Z" fill="white" fill-opacity="0.08"/>
<path d="M13.7795 67.5295C15.718 67.5295 17.2895 65.958 17.2895 64.0195C17.2895 62.0809 15.718 60.5095 13.7795 60.5095C11.841 60.5095 10.2695 62.0809 10.2695 64.0195C10.2695 65.958 11.841 67.5295 13.7795 67.5295Z" fill="white" fill-opacity="0.08"/>
<path d="M13.7795 293.53C15.718 293.53 17.2895 291.959 17.2895 290.02C17.2895 288.082 15.718 286.51 13.7795 286.51C11.841 286.51 10.2695 288.082 10.2695 290.02C10.2695 291.959 11.841 293.53 13.7795 293.53Z" fill="white" fill-opacity="0.08"/>
<path d="M134.78 67.5295C136.718 67.5295 138.29 65.958 138.29 64.0195C138.29 62.0809 136.718 60.5095 134.78 60.5095C132.841 60.5095 131.27 62.0809 131.27 64.0195C131.27 65.958 132.841 67.5295 134.78 67.5295Z" fill="white" fill-opacity="0.08"/>
<path d="M134.78 293.53C136.718 293.53 138.29 291.959 138.29 290.02C138.29 288.082 136.718 286.51 134.78 286.51C132.841 286.51 131.27 288.082 131.27 290.02C131.27 291.959 132.841 293.53 134.78 293.53Z" fill="white" fill-opacity="0.08"/>
<path d="M255.78 67.5295C257.718 67.5295 259.29 65.958 259.29 64.0195C259.29 62.0809 257.718 60.5095 255.78 60.5095C253.841 60.5095 252.27 62.0809 252.27 64.0195C252.27 65.958 253.841 67.5295 255.78 67.5295Z" fill="white" fill-opacity="0.08"/>
<path d="M255.78 293.53C257.718 293.53 259.29 291.959 259.29 290.02C259.29 288.082 257.718 286.51 255.78 286.51C253.841 286.51 252.27 288.082 252.27 290.02C252.27 291.959 253.841 293.53 255.78 293.53Z" fill="white" fill-opacity="0.08"/>
<path d="M43.9597 67.5295C45.8982 67.5295 47.4697 65.958 47.4697 64.0195C47.4697 62.0809 45.8982 60.5095 43.9597 60.5095C42.0212 60.5095 40.4497 62.0809 40.4497 64.0195C40.4497 65.958 42.0212 67.5295 43.9597 67.5295Z" fill="white" fill-opacity="0.08"/>
<path d="M43.9597 293.53C45.8982 293.53 47.4697 291.959 47.4697 290.02C47.4697 288.082 45.8982 286.51 43.9597 286.51C42.0212 286.51 40.4497 288.082 40.4497 290.02C40.4497 291.959 42.0212 293.53 43.9597 293.53Z" fill="white" fill-opacity="0.08"/>
<path d="M164.96 67.5295C166.899 67.5295 168.47 65.958 168.47 64.0195C168.47 62.0809 166.899 60.5095 164.96 60.5095C163.021 60.5095 161.45 62.0809 161.45 64.0195C161.45 65.958 163.021 67.5295 164.96 67.5295Z" fill="white" fill-opacity="0.08"/>
<path d="M164.96 293.53C166.899 293.53 168.47 291.959 168.47 290.02C168.47 288.082 166.899 286.51 164.96 286.51C163.021 286.51 161.45 288.082 161.45 290.02C161.45 291.959 163.021 293.53 164.96 293.53Z" fill="white" fill-opacity="0.08"/>
<path d="M285.96 67.5295C287.899 67.5295 289.47 65.958 289.47 64.0195C289.47 62.0809 287.899 60.5095 285.96 60.5095C284.021 60.5095 282.45 62.0809 282.45 64.0195C282.45 65.958 284.021 67.5295 285.96 67.5295Z" fill="white" fill-opacity="0.08"/>
<path d="M285.96 293.53C287.899 293.53 289.47 291.959 289.47 290.02C289.47 288.082 287.899 286.51 285.96 286.51C284.021 286.51 282.45 288.082 282.45 290.02C282.45 291.959 284.021 293.53 285.96 293.53Z" fill="white" fill-opacity="0.08"/>
<path d="M74.1497 67.5295C76.0882 67.5295 77.6597 65.958 77.6597 64.0195C77.6597 62.0809 76.0882 60.5095 74.1497 60.5095C72.2112 60.5095 70.6396 62.0809 70.6396 64.0195C70.6396 65.958 72.2112 67.5295 74.1497 67.5295Z" fill="white" fill-opacity="0.08"/>
<path d="M74.1497 293.53C76.0882 293.53 77.6597 291.959 77.6597 290.02C77.6597 288.082 76.0882 286.51 74.1497 286.51C72.2112 286.51 70.6396 288.082 70.6396 290.02C70.6396 291.959 72.2112 293.53 74.1497 293.53Z" fill="white" fill-opacity="0.08"/>
<path d="M195.15 67.5295C197.089 67.5295 198.66 65.958 198.66 64.0195C198.66 62.0809 197.089 60.5095 195.15 60.5095C193.212 60.5095 191.64 62.0809 191.64 64.0195C191.64 65.958 193.212 67.5295 195.15 67.5295Z" fill="white" fill-opacity="0.08"/>
<path d="M195.15 293.53C197.089 293.53 198.66 291.959 198.66 290.02C198.66 288.082 197.089 286.51 195.15 286.51C193.212 286.51 191.64 288.082 191.64 290.02C191.64 291.959 193.212 293.53 195.15 293.53Z" fill="white" fill-opacity="0.08"/>
<path d="M104.59 96.1595C106.529 96.1595 108.1 94.588 108.1 92.6495C108.1 90.7109 106.529 89.1395 104.59 89.1395C102.651 89.1395 101.08 90.7109 101.08 92.6495C101.08 94.588 102.651 96.1595 104.59 96.1595Z" fill="white" fill-opacity="0.08"/>
<path d="M225.59 96.1595C227.529 96.1595 229.1 94.588 229.1 92.6495C229.1 90.7109 227.529 89.1395 225.59 89.1395C223.651 89.1395 222.08 90.7109 222.08 92.6495C222.08 94.588 223.651 96.1595 225.59 96.1595Z" fill="white" fill-opacity="0.08"/>
<path d="M13.7795 96.1595C15.718 96.1595 17.2895 94.588 17.2895 92.6495C17.2895 90.7109 15.718 89.1395 13.7795 89.1395C11.841 89.1395 10.2695 90.7109 10.2695 92.6495C10.2695 94.588 11.841 96.1595 13.7795 96.1595Z" fill="white" fill-opacity="0.08"/>
<path d="M134.78 96.1595C136.718 96.1595 138.29 94.588 138.29 92.6495C138.29 90.7109 136.718 89.1395 134.78 89.1395C132.841 89.1395 131.27 90.7109 131.27 92.6495C131.27 94.588 132.841 96.1595 134.78 96.1595Z" fill="white" fill-opacity="0.08"/>
<path d="M255.78 96.1595C257.718 96.1595 259.29 94.588 259.29 92.6495C259.29 90.7109 257.718 89.1395 255.78 89.1395C253.841 89.1395 252.27 90.7109 252.27 92.6495C252.27 94.588 253.841 96.1595 255.78 96.1595Z" fill="white" fill-opacity="0.08"/>
<path d="M43.9597 96.1595C45.8982 96.1595 47.4697 94.588 47.4697 92.6495C47.4697 90.7109 45.8982 89.1395 43.9597 89.1395C42.0212 89.1395 40.4497 90.7109 40.4497 92.6495C40.4497 94.588 42.0212 96.1595 43.9597 96.1595Z" fill="white" fill-opacity="0.08"/>
<path d="M164.96 96.1595C166.899 96.1595 168.47 94.588 168.47 92.6495C168.47 90.7109 166.899 89.1395 164.96 89.1395C163.021 89.1395 161.45 90.7109 161.45 92.6495C161.45 94.588 163.021 96.1595 164.96 96.1595Z" fill="white" fill-opacity="0.08"/>
<path d="M285.96 96.1595C287.899 96.1595 289.47 94.588 289.47 92.6495C289.47 90.7109 287.899 89.1395 285.96 89.1395C284.021 89.1395 282.45 90.7109 282.45 92.6495C282.45 94.588 284.021 96.1595 285.96 96.1595Z" fill="white" fill-opacity="0.08"/>
<path d="M74.1497 96.1595C76.0882 96.1595 77.6597 94.588 77.6597 92.6495C77.6597 90.7109 76.0882 89.1395 74.1497 89.1395C72.2112 89.1395 70.6396 90.7109 70.6396 92.6495C70.6396 94.588 72.2112 96.1595 74.1497 96.1595Z" fill="white" fill-opacity="0.08"/>
<path d="M195.15 96.1595C197.089 96.1595 198.66 94.588 198.66 92.6495C198.66 90.7109 197.089 89.1395 195.15 89.1395C193.212 89.1395 191.64 90.7109 191.64 92.6495C191.64 94.588 193.212 96.1595 195.15 96.1595Z" fill="white" fill-opacity="0.08"/>
<path d="M104.59 124.78C106.529 124.78 108.1 123.208 108.1 121.27C108.1 119.331 106.529 117.76 104.59 117.76C102.651 117.76 101.08 119.331 101.08 121.27C101.08 123.208 102.651 124.78 104.59 124.78Z" fill="white" fill-opacity="0.08"/>
<path d="M225.59 124.78C227.529 124.78 229.1 123.208 229.1 121.27C229.1 119.331 227.529 117.76 225.59 117.76C223.651 117.76 222.08 119.331 222.08 121.27C222.08 123.208 223.651 124.78 225.59 124.78Z" fill="white" fill-opacity="0.08"/>
<path d="M13.7795 124.78C15.718 124.78 17.2895 123.208 17.2895 121.27C17.2895 119.331 15.718 117.76 13.7795 117.76C11.841 117.76 10.2695 119.331 10.2695 121.27C10.2695 123.208 11.841 124.78 13.7795 124.78Z" fill="white" fill-opacity="0.08"/>
<path d="M134.78 124.78C136.718 124.78 138.29 123.208 138.29 121.27C138.29 119.331 136.718 117.76 134.78 117.76C132.841 117.76 131.27 119.331 131.27 121.27C131.27 123.208 132.841 124.78 134.78 124.78Z" fill="white" fill-opacity="0.08"/>
<path d="M255.78 124.78C257.718 124.78 259.29 123.208 259.29 121.27C259.29 119.331 257.718 117.76 255.78 117.76C253.841 117.76 252.27 119.331 252.27 121.27C252.27 123.208 253.841 124.78 255.78 124.78Z" fill="white" fill-opacity="0.08"/>
<path d="M43.9597 124.78C45.8982 124.78 47.4697 123.208 47.4697 121.27C47.4697 119.331 45.8982 117.76 43.9597 117.76C42.0212 117.76 40.4497 119.331 40.4497 121.27C40.4497 123.208 42.0212 124.78 43.9597 124.78Z" fill="white" fill-opacity="0.08"/>
<path d="M164.96 124.78C166.899 124.78 168.47 123.208 168.47 121.27C168.47 119.331 166.899 117.76 164.96 117.76C163.021 117.76 161.45 119.331 161.45 121.27C161.45 123.208 163.021 124.78 164.96 124.78Z" fill="white" fill-opacity="0.08"/>
<path d="M285.96 124.78C287.899 124.78 289.47 123.208 289.47 121.27C289.47 119.331 287.899 117.76 285.96 117.76C284.021 117.76 282.45 119.331 282.45 121.27C282.45 123.208 284.021 124.78 285.96 124.78Z" fill="white" fill-opacity="0.08"/>
<path d="M74.1497 124.78C76.0882 124.78 77.6597 123.208 77.6597 121.27C77.6597 119.331 76.0882 117.76 74.1497 117.76C72.2112 117.76 70.6396 119.331 70.6396 121.27C70.6396 123.208 72.2112 124.78 74.1497 124.78Z" fill="white" fill-opacity="0.08"/>
<path d="M195.15 124.78C197.089 124.78 198.66 123.208 198.66 121.27C198.66 119.331 197.089 117.76 195.15 117.76C193.212 117.76 191.64 119.331 191.64 121.27C191.64 123.208 193.212 124.78 195.15 124.78Z" fill="white" fill-opacity="0.08"/>
<path d="M104.59 153.409C106.529 153.409 108.1 151.838 108.1 149.899C108.1 147.961 106.529 146.389 104.59 146.389C102.651 146.389 101.08 147.961 101.08 149.899C101.08 151.838 102.651 153.409 104.59 153.409Z" fill="white" fill-opacity="0.08"/>
<path d="M225.59 153.409C227.529 153.409 229.1 151.838 229.1 149.899C229.1 147.961 227.529 146.389 225.59 146.389C223.651 146.389 222.08 147.961 222.08 149.899C222.08 151.838 223.651 153.409 225.59 153.409Z" fill="white" fill-opacity="0.08"/>
<path d="M13.7795 153.409C15.718 153.409 17.2895 151.838 17.2895 149.899C17.2895 147.961 15.718 146.389 13.7795 146.389C11.841 146.389 10.2695 147.961 10.2695 149.899C10.2695 151.838 11.841 153.409 13.7795 153.409Z" fill="white" fill-opacity="0.08"/>
<path d="M134.78 153.409C136.718 153.409 138.29 151.838 138.29 149.899C138.29 147.961 136.718 146.389 134.78 146.389C132.841 146.389 131.27 147.961 131.27 149.899C131.27 151.838 132.841 153.409 134.78 153.409Z" fill="white" fill-opacity="0.08"/>
<path d="M255.78 153.409C257.718 153.409 259.29 151.838 259.29 149.899C259.29 147.961 257.718 146.389 255.78 146.389C253.841 146.389 252.27 147.961 252.27 149.899C252.27 151.838 253.841 153.409 255.78 153.409Z" fill="white" fill-opacity="0.08"/>
<path d="M43.9597 153.409C45.8982 153.409 47.4697 151.838 47.4697 149.899C47.4697 147.961 45.8982 146.389 43.9597 146.389C42.0212 146.389 40.4497 147.961 40.4497 149.899C40.4497 151.838 42.0212 153.409 43.9597 153.409Z" fill="white" fill-opacity="0.08"/>
<path d="M164.96 153.409C166.899 153.409 168.47 151.838 168.47 149.899C168.47 147.961 166.899 146.389 164.96 146.389C163.021 146.389 161.45 147.961 161.45 149.899C161.45 151.838 163.021 153.409 164.96 153.409Z" fill="white" fill-opacity="0.08"/>
<path d="M285.96 153.409C287.899 153.409 289.47 151.838 289.47 149.899C289.47 147.961 287.899 146.389 285.96 146.389C284.021 146.389 282.45 147.961 282.45 149.899C282.45 151.838 284.021 153.409 285.96 153.409Z" fill="white" fill-opacity="0.08"/>
<path d="M74.1497 153.409C76.0882 153.409 77.6597 151.838 77.6597 149.899C77.6597 147.961 76.0882 146.389 74.1497 146.389C72.2112 146.389 70.6396 147.961 70.6396 149.899C70.6396 151.838 72.2112 153.409 74.1497 153.409Z" fill="white" fill-opacity="0.08"/>
<path d="M195.15 153.409C197.089 153.409 198.66 151.838 198.66 149.899C198.66 147.961 197.089 146.389 195.15 146.389C193.212 146.389 191.64 147.961 191.64 149.899C191.64 151.838 193.212 153.409 195.15 153.409Z" fill="white" fill-opacity="0.08"/>
<path d="M104.59 182.099C106.529 182.099 108.1 180.528 108.1 178.589C108.1 176.65 106.529 175.079 104.59 175.079C102.651 175.079 101.08 176.65 101.08 178.589C101.08 180.528 102.651 182.099 104.59 182.099Z" fill="white" fill-opacity="0.08"/>
<path d="M225.59 182.099C227.529 182.099 229.1 180.528 229.1 178.589C229.1 176.65 227.529 175.079 225.59 175.079C223.651 175.079 222.08 176.65 222.08 178.589C222.08 180.528 223.651 182.099 225.59 182.099Z" fill="white" fill-opacity="0.08"/>
<path d="M13.7795 182.099C15.718 182.099 17.2895 180.528 17.2895 178.589C17.2895 176.65 15.718 175.079 13.7795 175.079C11.841 175.079 10.2695 176.65 10.2695 178.589C10.2695 180.528 11.841 182.099 13.7795 182.099Z" fill="white" fill-opacity="0.08"/>
<path d="M134.78 182.099C136.718 182.099 138.29 180.528 138.29 178.589C138.29 176.65 136.718 175.079 134.78 175.079C132.841 175.079 131.27 176.65 131.27 178.589C131.27 180.528 132.841 182.099 134.78 182.099Z" fill="white" fill-opacity="0.08"/>
<path d="M255.78 182.099C257.718 182.099 259.29 180.528 259.29 178.589C259.29 176.65 257.718 175.079 255.78 175.079C253.841 175.079 252.27 176.65 252.27 178.589C252.27 180.528 253.841 182.099 255.78 182.099Z" fill="white" fill-opacity="0.08"/>
<path d="M43.9597 182.099C45.8982 182.099 47.4697 180.528 47.4697 178.589C47.4697 176.65 45.8982 175.079 43.9597 175.079C42.0212 175.079 40.4497 176.65 40.4497 178.589C40.4497 180.528 42.0212 182.099 43.9597 182.099Z" fill="white" fill-opacity="0.08"/>
<path d="M164.96 182.099C166.899 182.099 168.47 180.528 168.47 178.589C168.47 176.65 166.899 175.079 164.96 175.079C163.021 175.079 161.45 176.65 161.45 178.589C161.45 180.528 163.021 182.099 164.96 182.099Z" fill="white" fill-opacity="0.08"/>
<path d="M285.96 182.099C287.899 182.099 289.47 180.528 289.47 178.589C289.47 176.65 287.899 175.079 285.96 175.079C284.021 175.079 282.45 176.65 282.45 178.589C282.45 180.528 284.021 182.099 285.96 182.099Z" fill="white" fill-opacity="0.08"/>
<path d="M74.1497 182.099C76.0882 182.099 77.6597 180.528 77.6597 178.589C77.6597 176.65 76.0882 175.079 74.1497 175.079C72.2112 175.079 70.6396 176.65 70.6396 178.589C70.6396 180.528 72.2112 182.099 74.1497 182.099Z" fill="white" fill-opacity="0.08"/>
<path d="M195.15 182.099C197.089 182.099 198.66 180.528 198.66 178.589C198.66 176.65 197.089 175.079 195.15 175.079C193.212 175.079 191.64 176.65 191.64 178.589C191.64 180.528 193.212 182.099 195.15 182.099Z" fill="white" fill-opacity="0.08"/>
<path d="M104.59 210.729C106.529 210.729 108.1 209.158 108.1 207.219C108.1 205.28 106.529 203.709 104.59 203.709C102.651 203.709 101.08 205.28 101.08 207.219C101.08 209.158 102.651 210.729 104.59 210.729Z" fill="white" fill-opacity="0.08"/>
<path d="M225.59 210.729C227.529 210.729 229.1 209.158 229.1 207.219C229.1 205.28 227.529 203.709 225.59 203.709C223.651 203.709 222.08 205.28 222.08 207.219C222.08 209.158 223.651 210.729 225.59 210.729Z" fill="white" fill-opacity="0.08"/>
<path d="M13.7795 210.729C15.718 210.729 17.2895 209.158 17.2895 207.219C17.2895 205.28 15.718 203.709 13.7795 203.709C11.841 203.709 10.2695 205.28 10.2695 207.219C10.2695 209.158 11.841 210.729 13.7795 210.729Z" fill="white" fill-opacity="0.08"/>
<path d="M134.78 210.729C136.718 210.729 138.29 209.158 138.29 207.219C138.29 205.28 136.718 203.709 134.78 203.709C132.841 203.709 131.27 205.28 131.27 207.219C131.27 209.158 132.841 210.729 134.78 210.729Z" fill="white" fill-opacity="0.08"/>
<path d="M255.78 210.729C257.718 210.729 259.29 209.158 259.29 207.219C259.29 205.28 257.718 203.709 255.78 203.709C253.841 203.709 252.27 205.28 252.27 207.219C252.27 209.158 253.841 210.729 255.78 210.729Z" fill="white" fill-opacity="0.08"/>
<path d="M43.9597 210.729C45.8982 210.729 47.4697 209.158 47.4697 207.219C47.4697 205.28 45.8982 203.709 43.9597 203.709C42.0212 203.709 40.4497 205.28 40.4497 207.219C40.4497 209.158 42.0212 210.729 43.9597 210.729Z" fill="white" fill-opacity="0.08"/>
<path d="M164.96 210.729C166.899 210.729 168.47 209.158 168.47 207.219C168.47 205.28 166.899 203.709 164.96 203.709C163.021 203.709 161.45 205.28 161.45 207.219C161.45 209.158 163.021 210.729 164.96 210.729Z" fill="white" fill-opacity="0.08"/>
<path d="M285.96 210.729C287.899 210.729 289.47 209.158 289.47 207.219C289.47 205.28 287.899 203.709 285.96 203.709C284.021 203.709 282.45 205.28 282.45 207.219C282.45 209.158 284.021 210.729 285.96 210.729Z" fill="white" fill-opacity="0.08"/>
<path d="M74.1497 210.729C76.0882 210.729 77.6597 209.158 77.6597 207.219C77.6597 205.28 76.0882 203.709 74.1497 203.709C72.2112 203.709 70.6396 205.28 70.6396 207.219C70.6396 209.158 72.2112 210.729 74.1497 210.729Z" fill="white" fill-opacity="0.08"/>
<path d="M195.15 210.729C197.089 210.729 198.66 209.158 198.66 207.219C198.66 205.28 197.089 203.709 195.15 203.709C193.212 203.709 191.64 205.28 191.64 207.219C191.64 209.158 193.212 210.729 195.15 210.729Z" fill="white" fill-opacity="0.08"/>
<path d="M104.59 13.3595C106.529 13.3595 108.1 11.788 108.1 9.84948C108.1 7.91096 106.529 6.33948 104.59 6.33948C102.651 6.33948 101.08 7.91096 101.08 9.84948C101.08 11.788 102.651 13.3595 104.59 13.3595Z" fill="white" fill-opacity="0.08"/>
<path d="M104.59 239.359C106.529 239.359 108.1 237.788 108.1 235.849C108.1 233.91 106.529 232.339 104.59 232.339C102.651 232.339 101.08 233.91 101.08 235.849C101.08 237.788 102.651 239.359 104.59 239.359Z" fill="white" fill-opacity="0.08"/>
<path d="M225.59 13.3595C227.529 13.3595 229.1 11.788 229.1 9.84948C229.1 7.91096 227.529 6.33948 225.59 6.33948C223.651 6.33948 222.08 7.91096 222.08 9.84948C222.08 11.788 223.651 13.3595 225.59 13.3595Z" fill="white" fill-opacity="0.08"/>
<path d="M225.59 239.359C227.529 239.359 229.1 237.788 229.1 235.849C229.1 233.91 227.529 232.339 225.59 232.339C223.651 232.339 222.08 233.91 222.08 235.849C222.08 237.788 223.651 239.359 225.59 239.359Z" fill="white" fill-opacity="0.08"/>
<path d="M13.7795 13.3595C15.718 13.3595 17.2895 11.788 17.2895 9.84948C17.2895 7.91096 15.718 6.33948 13.7795 6.33948C11.841 6.33948 10.2695 7.91096 10.2695 9.84948C10.2695 11.788 11.841 13.3595 13.7795 13.3595Z" fill="white" fill-opacity="0.08"/>
<path d="M13.7795 239.359C15.718 239.359 17.2895 237.788 17.2895 235.849C17.2895 233.91 15.718 232.339 13.7795 232.339C11.841 232.339 10.2695 233.91 10.2695 235.849C10.2695 237.788 11.841 239.359 13.7795 239.359Z" fill="white" fill-opacity="0.08"/>
<path d="M134.78 13.3595C136.718 13.3595 138.29 11.788 138.29 9.84948C138.29 7.91096 136.718 6.33948 134.78 6.33948C132.841 6.33948 131.27 7.91096 131.27 9.84948C131.27 11.788 132.841 13.3595 134.78 13.3595Z" fill="white" fill-opacity="0.08"/>
<path d="M134.78 239.359C136.718 239.359 138.29 237.788 138.29 235.849C138.29 233.91 136.718 232.339 134.78 232.339C132.841 232.339 131.27 233.91 131.27 235.849C131.27 237.788 132.841 239.359 134.78 239.359Z" fill="white" fill-opacity="0.08"/>
<path d="M255.78 13.3595C257.718 13.3595 259.29 11.788 259.29 9.84948C259.29 7.91096 257.718 6.33948 255.78 6.33948C253.841 6.33948 252.27 7.91096 252.27 9.84948C252.27 11.788 253.841 13.3595 255.78 13.3595Z" fill="white" fill-opacity="0.08"/>
<path d="M255.78 239.359C257.718 239.359 259.29 237.788 259.29 235.849C259.29 233.91 257.718 232.339 255.78 232.339C253.841 232.339 252.27 233.91 252.27 235.849C252.27 237.788 253.841 239.359 255.78 239.359Z" fill="white" fill-opacity="0.08"/>
<path d="M43.9597 13.3595C45.8982 13.3595 47.4697 11.788 47.4697 9.84948C47.4697 7.91096 45.8982 6.33948 43.9597 6.33948C42.0212 6.33948 40.4497 7.91096 40.4497 9.84948C40.4497 11.788 42.0212 13.3595 43.9597 13.3595Z" fill="white" fill-opacity="0.08"/>
<path d="M43.9597 239.359C45.8982 239.359 47.4697 237.788 47.4697 235.849C47.4697 233.91 45.8982 232.339 43.9597 232.339C42.0212 232.339 40.4497 233.91 40.4497 235.849C40.4497 237.788 42.0212 239.359 43.9597 239.359Z" fill="white" fill-opacity="0.08"/>
<path d="M164.96 13.3595C166.899 13.3595 168.47 11.788 168.47 9.84948C168.47 7.91096 166.899 6.33948 164.96 6.33948C163.021 6.33948 161.45 7.91096 161.45 9.84948C161.45 11.788 163.021 13.3595 164.96 13.3595Z" fill="white" fill-opacity="0.08"/>
<path d="M164.96 239.359C166.899 239.359 168.47 237.788 168.47 235.849C168.47 233.91 166.899 232.339 164.96 232.339C163.021 232.339 161.45 233.91 161.45 235.849C161.45 237.788 163.021 239.359 164.96 239.359Z" fill="white" fill-opacity="0.08"/>
<path d="M285.96 13.3595C287.899 13.3595 289.47 11.788 289.47 9.84948C289.47 7.91096 287.899 6.33948 285.96 6.33948C284.021 6.33948 282.45 7.91096 282.45 9.84948C282.45 11.788 284.021 13.3595 285.96 13.3595Z" fill="white" fill-opacity="0.08"/>
<path d="M285.96 239.359C287.899 239.359 289.47 237.788 289.47 235.849C289.47 233.91 287.899 232.339 285.96 232.339C284.021 232.339 282.45 233.91 282.45 235.849C282.45 237.788 284.021 239.359 285.96 239.359Z" fill="white" fill-opacity="0.08"/>
<path d="M74.1497 13.3595C76.0882 13.3595 77.6597 11.788 77.6597 9.84948C77.6597 7.91096 76.0882 6.33948 74.1497 6.33948C72.2112 6.33948 70.6396 7.91096 70.6396 9.84948C70.6396 11.788 72.2112 13.3595 74.1497 13.3595Z" fill="white" fill-opacity="0.08"/>
<path d="M74.1497 239.359C76.0882 239.359 77.6597 237.788 77.6597 235.849C77.6597 233.91 76.0882 232.339 74.1497 232.339C72.2112 232.339 70.6396 233.91 70.6396 235.849C70.6396 237.788 72.2112 239.359 74.1497 239.359Z" fill="white" fill-opacity="0.08"/>
<path d="M195.15 13.3595C197.089 13.3595 198.66 11.788 198.66 9.84948C198.66 7.91096 197.089 6.33948 195.15 6.33948C193.212 6.33948 191.64 7.91096 191.64 9.84948C191.64 11.788 193.212 13.3595 195.15 13.3595Z" fill="white" fill-opacity="0.08"/>
<path d="M195.15 239.359C197.089 239.359 198.66 237.788 198.66 235.849C198.66 233.91 197.089 232.339 195.15 232.339C193.212 232.339 191.64 233.91 191.64 235.849C191.64 237.788 193.212 239.359 195.15 239.359Z" fill="white" fill-opacity="0.08"/>
<path d="M104.59 41.9795C106.529 41.9795 108.1 40.408 108.1 38.4695C108.1 36.531 106.529 34.9595 104.59 34.9595C102.651 34.9595 101.08 36.531 101.08 38.4695C101.08 40.408 102.651 41.9795 104.59 41.9795Z" fill="white" fill-opacity="0.08"/>
<path d="M104.59 267.979C106.529 267.979 108.1 266.408 108.1 264.469C108.1 262.53 106.529 260.959 104.59 260.959C102.651 260.959 101.08 262.53 101.08 264.469C101.08 266.408 102.651 267.979 104.59 267.979Z" fill="white" fill-opacity="0.08"/>
<path d="M225.59 41.9795C227.529 41.9795 229.1 40.408 229.1 38.4695C229.1 36.531 227.529 34.9595 225.59 34.9595C223.651 34.9595 222.08 36.531 222.08 38.4695C222.08 40.408 223.651 41.9795 225.59 41.9795Z" fill="white" fill-opacity="0.08"/>
<path d="M225.59 267.979C227.529 267.979 229.1 266.408 229.1 264.469C229.1 262.53 227.529 260.959 225.59 260.959C223.651 260.959 222.08 262.53 222.08 264.469C222.08 266.408 223.651 267.979 225.59 267.979Z" fill="white" fill-opacity="0.08"/>
<path d="M13.7795 41.9795C15.718 41.9795 17.2895 40.408 17.2895 38.4695C17.2895 36.531 15.718 34.9595 13.7795 34.9595C11.841 34.9595 10.2695 36.531 10.2695 38.4695C10.2695 40.408 11.841 41.9795 13.7795 41.9795Z" fill="white" fill-opacity="0.08"/>
<path d="M13.7795 267.979C15.718 267.979 17.2895 266.408 17.2895 264.469C17.2895 262.53 15.718 260.959 13.7795 260.959C11.841 260.959 10.2695 262.53 10.2695 264.469C10.2695 266.408 11.841 267.979 13.7795 267.979Z" fill="white" fill-opacity="0.08"/>
<path d="M134.78 41.9795C136.718 41.9795 138.29 40.408 138.29 38.4695C138.29 36.531 136.718 34.9595 134.78 34.9595C132.841 34.9595 131.27 36.531 131.27 38.4695C131.27 40.408 132.841 41.9795 134.78 41.9795Z" fill="white" fill-opacity="0.08"/>
<path d="M134.78 267.979C136.718 267.979 138.29 266.408 138.29 264.469C138.29 262.53 136.718 260.959 134.78 260.959C132.841 260.959 131.27 262.53 131.27 264.469C131.27 266.408 132.841 267.979 134.78 267.979Z" fill="white" fill-opacity="0.08"/>
<path d="M255.78 41.9795C257.718 41.9795 259.29 40.408 259.29 38.4695C259.29 36.531 257.718 34.9595 255.78 34.9595C253.841 34.9595 252.27 36.531 252.27 38.4695C252.27 40.408 253.841 41.9795 255.78 41.9795Z" fill="white" fill-opacity="0.08"/>
<path d="M255.78 267.979C257.718 267.979 259.29 266.408 259.29 264.469C259.29 262.53 257.718 260.959 255.78 260.959C253.841 260.959 252.27 262.53 252.27 264.469C252.27 266.408 253.841 267.979 255.78 267.979Z" fill="white" fill-opacity="0.08"/>
<path d="M43.9597 41.9795C45.8982 41.9795 47.4697 40.408 47.4697 38.4695C47.4697 36.531 45.8982 34.9595 43.9597 34.9595C42.0212 34.9595 40.4497 36.531 40.4497 38.4695C40.4497 40.408 42.0212 41.9795 43.9597 41.9795Z" fill="white" fill-opacity="0.08"/>
<path d="M43.9597 267.979C45.8982 267.979 47.4697 266.408 47.4697 264.469C47.4697 262.53 45.8982 260.959 43.9597 260.959C42.0212 260.959 40.4497 262.53 40.4497 264.469C40.4497 266.408 42.0212 267.979 43.9597 267.979Z" fill="white" fill-opacity="0.08"/>
<path d="M164.96 41.9795C166.899 41.9795 168.47 40.408 168.47 38.4695C168.47 36.531 166.899 34.9595 164.96 34.9595C163.021 34.9595 161.45 36.531 161.45 38.4695C161.45 40.408 163.021 41.9795 164.96 41.9795Z" fill="white" fill-opacity="0.08"/>
<path d="M164.96 267.979C166.899 267.979 168.47 266.408 168.47 264.469C168.47 262.53 166.899 260.959 164.96 260.959C163.021 260.959 161.45 262.53 161.45 264.469C161.45 266.408 163.021 267.979 164.96 267.979Z" fill="white" fill-opacity="0.08"/>
<path d="M285.96 41.9795C287.899 41.9795 289.47 40.408 289.47 38.4695C289.47 36.531 287.899 34.9595 285.96 34.9595C284.021 34.9595 282.45 36.531 282.45 38.4695C282.45 40.408 284.021 41.9795 285.96 41.9795Z" fill="white" fill-opacity="0.08"/>
<path d="M285.96 267.979C287.899 267.979 289.47 266.408 289.47 264.469C289.47 262.53 287.899 260.959 285.96 260.959C284.021 260.959 282.45 262.53 282.45 264.469C282.45 266.408 284.021 267.979 285.96 267.979Z" fill="white" fill-opacity="0.08"/>
<path d="M74.1497 41.9795C76.0882 41.9795 77.6597 40.408 77.6597 38.4695C77.6597 36.531 76.0882 34.9595 74.1497 34.9595C72.2112 34.9595 70.6396 36.531 70.6396 38.4695C70.6396 40.408 72.2112 41.9795 74.1497 41.9795Z" fill="white" fill-opacity="0.08"/>
<path d="M74.1497 267.979C76.0882 267.979 77.6597 266.408 77.6597 264.469C77.6597 262.53 76.0882 260.959 74.1497 260.959C72.2112 260.959 70.6396 262.53 70.6396 264.469C70.6396 266.408 72.2112 267.979 74.1497 267.979Z" fill="white" fill-opacity="0.08"/>
<path d="M195.15 41.9795C197.089 41.9795 198.66 40.408 198.66 38.4695C198.66 36.531 197.089 34.9595 195.15 34.9595C193.212 34.9595 191.64 36.531 191.64 38.4695C191.64 40.408 193.212 41.9795 195.15 41.9795Z" fill="white" fill-opacity="0.08"/>
<path d="M195.15 267.979C197.089 267.979 198.66 266.408 198.66 264.469C198.66 262.53 197.089 260.959 195.15 260.959C193.212 260.959 191.64 262.53 191.64 264.469C191.64 266.408 193.212 267.979 195.15 267.979Z" fill="white" fill-opacity="0.08"/>
</g>
</g>
</g>
<defs>
<clipPath id="clip0_79_835">
<rect width="300" height="300" fill="white" transform="translate(0.0795898 0.0794678)"/>
</clipPath>
</defs>
</svg>
